<svg width="124" height="44" viewBox="0 0 124 44" fill="none" xmlns="http://www.w3.org/2000/svg">
<path d="M61.6169 17.8243V14.9873H63.8865V17.8243H61.6169ZM59.7084 38.6117C59.1238 38.6117 58.565 38.5257 58.032 38.3537C57.499 38.1818 57.0262 37.9067 56.6135 37.5284L57.6709 36.0068C57.9117 36.2303 58.1954 36.385 58.522 36.471C58.8315 36.557 59.141 36.6 59.4505 36.6C60.0007 36.6 60.4993 36.3936 60.9464 35.981C61.3934 35.5683 61.6169 35.0439 61.6169 34.4078V20.3518H63.8865V34.253C63.8865 35.0955 63.6888 35.8434 63.2933 36.4968C62.8979 37.1674 62.3821 37.6832 61.7459 38.0443C61.1269 38.4225 60.4478 38.6117 59.7084 38.6117Z" fill="black"/>
<path d="M73.437 34.0725C72.0958 34.0725 70.9095 33.7544 69.8778 33.1182C68.8634 32.4649 68.0725 31.6138 67.5051 30.5649C66.9377 29.4989 66.654 28.3469 66.654 27.109C66.654 25.8538 66.9377 24.7018 67.5051 23.653C68.0897 22.587 68.8892 21.7359 69.9036 21.0997C70.9353 20.4464 72.113 20.1197 73.437 20.1197C74.7781 20.1197 75.9559 20.4464 76.9703 21.0997C78.0019 21.7359 78.8014 22.587 79.3688 23.653C79.9534 24.7018 80.2457 25.8538 80.2457 27.109C80.2457 28.3469 79.9534 29.4989 79.3688 30.5649C78.8014 31.6138 78.0105 32.4649 76.9961 33.1182C75.9817 33.7544 74.7953 34.0725 73.437 34.0725ZM68.9752 27.1348C68.9752 28.0632 69.1729 28.9057 69.5684 29.6623C69.981 30.4188 70.5226 31.0206 71.1932 31.4676C71.8637 31.8975 72.6117 32.1124 73.437 32.1124C74.2623 32.1124 75.0102 31.8889 75.6808 31.4418C76.3685 30.9948 76.9101 30.393 77.3056 29.6365C77.7182 28.8627 77.9246 28.0116 77.9246 27.0832C77.9246 26.1547 77.7182 25.3122 77.3056 24.5557C76.9101 23.7992 76.3685 23.1974 75.6808 22.7503C75.0102 22.3033 74.2623 22.0798 73.437 22.0798C72.6117 22.0798 71.8637 22.3119 71.1932 22.7761C70.5226 23.2232 69.981 23.8249 69.5684 24.5815C69.1729 25.338 68.9752 26.1891 68.9752 27.1348Z" fill="black"/>
<path d="M89.9078 34.0725C88.859 34.0725 87.9047 33.8146 87.045 33.2988C86.1853 32.7829 85.5062 32.1124 85.0076 31.2871V33.8146H82.9959V14.9873H85.2655V23.034C85.8329 22.1571 86.5292 21.4522 87.3545 20.9192C88.1798 20.3862 89.1427 20.1197 90.2431 20.1197C91.1716 20.1197 92.0055 20.3174 92.7448 20.7129C93.4841 21.0911 94.1117 21.6155 94.6275 22.2861C95.1605 22.9395 95.5646 23.6874 95.8397 24.5299C96.132 25.3552 96.2781 26.2235 96.2781 27.1348C96.2781 28.3899 95.9944 29.5505 95.427 30.6165C94.8768 31.6653 94.1203 32.5078 93.1574 33.144C92.1946 33.763 91.1114 34.0725 89.9078 34.0725ZM89.3404 32.1124C90.2517 32.1124 91.0512 31.8803 91.7389 31.416C92.4267 30.9346 92.9683 30.3156 93.3638 29.5591C93.7592 28.8026 93.957 27.9945 93.957 27.1348C93.957 26.2579 93.7678 25.4326 93.3896 24.6588C93.0285 23.8851 92.5127 23.2661 91.8421 22.8019C91.1887 22.3205 90.4236 22.0798 89.5467 22.0798C88.5839 22.0798 87.7242 22.3893 86.9677 23.0082C86.2283 23.6272 85.6609 24.3665 85.2655 25.2262V29.1206C85.3858 29.688 85.6609 30.2039 86.0908 30.6681C86.5378 31.1151 87.0536 31.4676 87.6382 31.7255C88.24 31.9834 88.8074 32.1124 89.3404 32.1124Z" fill="black"/>
<path d="M103.681 34.0725C102.564 34.0725 101.515 33.8919 100.535 33.5309C99.5548 33.1526 98.7123 32.5938 98.0073 31.8545L98.8842 30.2554C99.6579 30.9776 100.432 31.4934 101.205 31.8029C101.979 32.1124 102.77 32.2671 103.578 32.2671C104.507 32.2671 105.263 32.0952 105.848 31.7513C106.432 31.3902 106.725 30.8658 106.725 30.1781C106.725 29.6794 106.57 29.3098 106.26 29.0691C105.968 28.8284 105.547 28.6306 104.997 28.4759C104.446 28.3039 103.793 28.1148 103.037 27.9085C101.644 27.513 100.578 27.0488 99.8385 26.5158C99.1163 25.9656 98.7552 25.1661 98.7552 24.1172C98.7552 22.8449 99.2367 21.8648 100.2 21.1771C101.18 20.4721 102.426 20.1197 103.939 20.1197C105.968 20.1197 107.567 20.7301 108.736 21.9508L107.705 23.5241C106.656 22.4408 105.358 21.8992 103.81 21.8992C103.346 21.8992 102.89 21.9594 102.443 22.0798C101.996 22.1829 101.627 22.3807 101.334 22.673C101.042 22.9481 100.896 23.3435 100.896 23.8593C100.896 24.4955 101.154 24.9511 101.67 25.2262C102.185 25.5013 102.942 25.785 103.939 26.0773C104.954 26.3696 105.831 26.6619 106.57 26.9542C107.326 27.2465 107.911 27.6248 108.324 28.089C108.736 28.5533 108.943 29.198 108.943 30.0233C108.943 31.2957 108.461 32.2929 107.498 33.0151C106.535 33.72 105.263 34.0725 103.681 34.0725Z" fill="black"/>
<path d="M112 37.4769C112.223 37.4941 112.447 37.5112 112.67 37.5284C112.894 37.5628 113.066 37.58 113.186 37.58C113.461 37.58 113.702 37.4855 113.908 37.2963C114.115 37.1072 114.338 36.7375 114.579 36.1873C114.837 35.6543 115.163 34.8634 115.559 33.8146L109.859 20.3518H112.258L116.797 31.5192L120.898 20.3518H123.141L116.591 37.3479C116.367 37.9497 115.963 38.4741 115.378 38.9211C114.811 39.3854 114.046 39.6175 113.083 39.6175C112.928 39.6175 112.765 39.6089 112.593 39.5917C112.438 39.5745 112.241 39.5401 112 39.4885V37.4769Z" fill="black"/>
<path d="M26.8058 10.0514C21.2547 10.0514 10.1352 5.55136 10.1352 0H10.053C10.053 4.44305 11.818 8.70412 14.9597 11.8459C18.1013 14.9876 22.3623 16.7528 26.8053 16.7529C29.4712 16.7529 32.0279 17.8119 33.913 19.697C35.7981 21.582 36.8571 24.1387 36.8571 26.8045C36.8577 29.4703 35.7992 32.0274 33.9145 33.9128C32.0298 35.7983 29.4733 36.8577 26.8074 36.8584C24.1414 36.8588 21.5845 35.8002 19.6991 33.9155C17.8136 32.0308 16.7541 29.4743 16.7536 26.8085C16.7535 24.6084 16.3201 22.4299 15.4781 20.3974C14.6362 18.3649 13.4021 16.518 11.8464 14.9624C10.2906 13.4068 8.44378 12.1728 6.41117 11.331C4.37857 10.4891 2.20004 10.0559 0 10.056V10.1375C5.55031 10.1375 10.0503 21.2522 10.0524 26.8043H10.0514C10.0514 30.1178 11.0338 33.3568 12.8746 36.1118C14.7154 38.8668 17.3318 41.0141 20.3929 42.2821C23.4541 43.5503 26.8225 43.8823 30.0724 43.2358C33.322 42.5896 36.3072 40.994 38.6503 38.6514C40.9932 36.3085 42.5889 33.3235 43.2356 30.0736C43.8823 26.824 43.5505 23.4556 42.2828 20.3943C41.015 17.333 38.8679 14.7164 36.1131 12.8754C33.3581 11.0344 30.1191 10.0516 26.8058 10.0514Z" fill="url(#paint0_linear)"/>
<defs>
<linearGradient id="paint0_linear" x1="-4.69871e-08" y1="2.09412" x2="54.8659" y2="41.673" gradientUnits="userSpaceOnUse">
<stop stop-color="#C33764"/>
<stop offset="0.9999" stop-color="#1D2671"/>
<stop offset="1" stop-color="white" stop-opacity="0"/>
</linearGradient>
</defs>
</svg>
