<svg width="1440" height="136" viewBox="0 0 1440 136" fill="none" xmlns="http://www.w3.org/2000/svg">
<path d="M0 101.979L60 93.4545C120 85.2484 240 67.7207 360 80.7071C480 93.2155 600 136.238 720 135.999C840 136.238 960 93.2155 1080 80.7071C1200 67.7207 1320 85.2484 1380 93.4545L1440 101.979V-4.35233e-06H1380C1320 -4.35233e-06 1200 -4.35233e-06 1080 -4.35233e-06C960 -4.35233e-06 840 -4.35233e-06 720 -4.35233e-06C600 -4.35233e-06 480 -4.35233e-06 360 -4.35233e-06C240 -4.35233e-06 120 -4.35233e-06 60 -4.35233e-06H0L0 101.979Z" fill="#933368" fill-opacity="0.05"/>
</svg>
