<svg width="44" height="44" viewBox="0 0 44 44" fill="none" xmlns="http://www.w3.org/2000/svg">
<path d="M26.8058 10.0514C21.2547 10.0514 10.1352 5.55136 10.1352 0H10.053C10.053 4.44305 11.818 8.70412 14.9597 11.8459C18.1013 14.9876 22.3623 16.7528 26.8053 16.7529C29.4712 16.7529 32.0279 17.8119 33.913 19.697C35.7981 21.582 36.8571 24.1387 36.8571 26.8045C36.8577 29.4703 35.7992 32.0274 33.9145 33.9128C32.0298 35.7983 29.4733 36.8577 26.8074 36.8584C24.1414 36.8588 21.5845 35.8002 19.6991 33.9155C17.8136 32.0308 16.7541 29.4743 16.7536 26.8085C16.7535 24.6084 16.3201 22.4299 15.4781 20.3974C14.6362 18.3649 13.4021 16.518 11.8464 14.9624C10.2906 13.4068 8.44378 12.1728 6.41117 11.331C4.37857 10.4891 2.20004 10.0559 0 10.056V10.1375C5.55031 10.1375 10.0503 21.2522 10.0524 26.8043H10.0514C10.0514 30.1178 11.0338 33.3568 12.8746 36.1118C14.7154 38.8668 17.3318 41.0141 20.3929 42.2821C23.4541 43.5503 26.8225 43.8823 30.0724 43.2358C33.322 42.5896 36.3072 40.994 38.6503 38.6514C40.9932 36.3085 42.5889 33.3235 43.2356 30.0736C43.8823 26.824 43.5505 23.4556 42.2828 20.3943C41.015 17.333 38.8679 14.7164 36.1131 12.8754C33.3581 11.0344 30.1191 10.0516 26.8058 10.0514Z" fill="url(#paint0_linear)"/>
<defs>
<linearGradient id="paint0_linear" x1="-4.69871e-08" y1="2.09412" x2="54.8659" y2="41.673" gradientUnits="userSpaceOnUse">
<stop stop-color="#C33764"/>
<stop offset="0.9999" stop-color="#1D2671"/>
<stop offset="1" stop-color="white" stop-opacity="0"/>
</linearGradient>
</defs>
</svg>
